<?xml version="1.0" standalone="no"?>
<!DOCTYPE svg PUBLIC "-//W3C//DTD SVG 1.1//EN"
 "http://www.w3.org/Graphics/SVG/1.1/DTD/svg11.dtd">
<svg width="960px" height="540px" version="1.1"
 xmlns="http://www.w3.org/2000/svg" xmlns:xlink="http://www.w3.org/1999/xlink">
<path d="M 258.297951,51.135104 A209.216168,209.216168 0.000000 0,1 368.499048,54.045092" fill="none" stroke ="red" stroke-width="1" />
<path d="M 565.724001,442.108495 A33.138971,33.138971 0.000000 0,1 573.390046,424.686728" fill="none" stroke ="red" stroke-width="1" />
<path d="M 426.963612,212.123055 A12.747527,12.747527 0.000000 0,1 414.348701,207.409139" fill="none" stroke ="red" stroke-width="1" />
<path d="M 578.010166,452.036013 A189.131120,189.131120 0.000000 0,1 579.269303,428.014770" fill="none" stroke ="red" stroke-width="1" />
<path d="M 416.043922,80.679708 A939.382481,939.382481 0.000000 0,1 390.954311,66.625879" fill="none" stroke ="red" stroke-width="1" />
<path d="M 922.522546,172.155034 A9.649823,9.649823 0.000000 0,1 935.895514,184.324847" fill="none" stroke ="red" stroke-width="1" />
<path d="M 543.903841,128.895465 A158.896399,158.896399 0.000000 0,1 543.254187,93.049645" fill="none" stroke ="red" stroke-width="1" />
<path d="M 560.665222,232.977767 A120.582914,120.582914 0.000000 0,1 556.610620,263.655458" fill="none" stroke ="red" stroke-width="1" />
<path d="M 428.160392,219.135416 A13.254099,13.254099 0.000000 0,1 417.173520,215.792808" fill="none" stroke ="red" stroke-width="1" />
<line x1="544.550454" y1="408.548598" x2="523.660713" y2="0.389414"  fill="none" stroke ="blue" stroke-width="1" />
<line x1="489.243111" y1="467.506664" x2="507.709653" y2="465.126812"  fill="none" stroke ="blue" stroke-width="1" />
<line x1="508.470865" y1="469.358881" x2="483.700829" y2="474.472753"  fill="none" stroke ="blue" stroke-width="1" />
<line x1="427.553203" y1="41.443666" x2="436.529628" y2="368.608935"  fill="none" stroke ="blue" stroke-width="1" />
<line x1="426.145471" y1="0.398409" x2="428.628467" y2="40.615548"  fill="none" stroke ="blue" stroke-width="1" />
<line x1="532.165486" y1="0.402239" x2="539.628901" y2="127.551132"  fill="none" stroke ="blue" stroke-width="1" />
<line x1="539.928029" y1="128.418321" x2="545.142053" y2="219.577670"  fill="none" stroke ="blue" stroke-width="1" />
<line x1="390.527891" y1="216.333479" x2="334.426813" y2="206.936954"  fill="none" stroke ="blue" stroke-width="1" />
<line x1="480.614394" y1="309.089204" x2="497.745260" y2="305.763251"  fill="none" stroke ="blue" stroke-width="1" />
<line x1="519.511465" y1="420.254541" x2="508.442197" y2="419.737498"  fill="none" stroke ="blue" stroke-width="1" />
<line x1="232.622589" y1="0.462309" x2="238.416508" y2="480.476867"  fill="none" stroke ="blue" stroke-width="1" />
<line x1="301.621092" y1="198.703653" x2="359.576090" y2="196.513073"  fill="none" stroke ="blue" stroke-width="1" />
<line x1="359.239088" y1="193.959695" x2="386.442420" y2="198.822136"  fill="none" stroke ="blue" stroke-width="1" />
<line x1="334.517424" y1="206.080445" x2="305.393576" y2="206.954694"  fill="none" stroke ="blue" stroke-width="1" />
<line x1="483.091834" y1="421.436459" x2="480.371006" y2="310.454131"  fill="none" stroke ="blue" stroke-width="1" />
<line x1="478.858421" y1="310.579505" x2="476.865645" y2="269.433859"  fill="none" stroke ="blue" stroke-width="1" />
<line x1="562.224971" y1="489.520659" x2="558.766640" y2="443.479971"  fill="none" stroke ="blue" stroke-width="1" />
<line x1="297.398917" y1="208.466369" x2="258.380896" y2="212.282089"  fill="none" stroke ="blue" stroke-width="1" />
<line x1="414.540702" y1="214.424341" x2="390.411353" y2="215.486843"  fill="none" stroke ="blue" stroke-width="1" />
<line x1="423.012669" y1="219.554675" x2="414.670076" y2="215.030322"  fill="none" stroke ="blue" stroke-width="1" />
<line x1="511.412710" y1="379.945210" x2="516.801327" y2="417.312339"  fill="none" stroke ="blue" stroke-width="1" />
<line x1="543.503876" y1="419.670793" x2="519.470867" y2="420.216139"  fill="none" stroke ="blue" stroke-width="1" />
<line x1="556.565004" y1="411.554724" x2="555.158273" y2="387.520001"  fill="none" stroke ="blue" stroke-width="1" />
<line x1="487.251380" y1="35.563698" x2="486.256700" y2="0.450237"  fill="none" stroke ="blue" stroke-width="1" />
<line x1="393.703839" y1="66.035403" x2="368.795029" y2="55.106789"  fill="none" stroke ="blue" stroke-width="1" />
<line x1="385.699379" y1="440.526356" x2="426.665573" y2="423.908161"  fill="none" stroke ="blue" stroke-width="1" />
<line x1="366.496702" y1="440.815998" x2="385.510724" y2="440.724325"  fill="none" stroke ="blue" stroke-width="1" />
<line x1="427.227976" y1="206.508966" x2="423.897263" y2="105.453947"  fill="none" stroke ="blue" stroke-width="1" />
<line x1="503.550496" y1="420.533758" x2="484.400800" y2="421.469165"  fill="none" stroke ="blue" stroke-width="1" />
<line x1="423.813352" y1="85.520400" x2="421.284964" y2="0.417260"  fill="none" stroke ="blue" stroke-width="1" />
<line x1="334.578662" y1="442.291715" x2="366.473283" y2="440.891446"  fill="none" stroke ="blue" stroke-width="1" />
<line x1="493.764884" y1="152.329918" x2="491.387505" y2="134.649591"  fill="none" stroke ="blue" stroke-width="1" />
<line x1="492.641947" y1="135.335089" x2="491.258384" y2="117.364620"  fill="none" stroke ="blue" stroke-width="1" />
<line x1="491.130997" y1="116.643976" x2="490.514445" y2="106.499122"  fill="none" stroke ="blue" stroke-width="1" />
<line x1="264.153329" y1="185.752424" x2="302.119616" y2="196.261504"  fill="none" stroke ="blue" stroke-width="1" />
<line x1="252.613841" y1="190.030379" x2="265.656861" y2="187.230807"  fill="none" stroke ="blue" stroke-width="1" />
<line x1="249.970817" y1="194.960386" x2="254.953886" y2="189.956192"  fill="none" stroke ="blue" stroke-width="1" />
<line x1="250.849556" y1="198.051876" x2="251.542205" y2="193.847910"  fill="none" stroke ="blue" stroke-width="1" />
<line x1="253.408523" y1="204.111445" x2="251.589431" y2="197.889153"  fill="none" stroke ="blue" stroke-width="1" />
<line x1="478.536540" y1="482.337391" x2="355.378321" y2="487.711458"  fill="none" stroke ="blue" stroke-width="1" />
<line x1="354.541470" y1="488.313325" x2="266.564614" y2="490.325321"  fill="none" stroke ="blue" stroke-width="1" />
<line x1="274.501865" y1="24.661860" x2="314.519594" y2="24.200858"  fill="none" stroke ="blue" stroke-width="1" />
<line x1="314.519894" y1="26.971019" x2="336.563932" y2="27.800072"  fill="none" stroke ="blue" stroke-width="1" />
<line x1="336.356396" y1="27.881203" x2="367.940827" y2="38.209910"  fill="none" stroke ="blue" stroke-width="1" />
<line x1="367.428629" y1="37.016837" x2="392.131150" y2="45.705618"  fill="none" stroke ="blue" stroke-width="1" />
<line x1="391.875207" y1="46.469966" x2="408.646296" y2="57.272882"  fill="none" stroke ="blue" stroke-width="1" />
<line x1="403.764400" y1="56.179846" x2="411.673530" y2="62.711618"  fill="none" stroke ="blue" stroke-width="1" />
<line x1="409.637010" y1="61.983058" x2="418.090301" y2="69.160325"  fill="none" stroke ="blue" stroke-width="1" />
<line x1="417.513546" y1="69.516266" x2="419.946382" y2="74.271632"  fill="none" stroke ="blue" stroke-width="1" />
<line x1="549.518620" y1="443.498537" x2="551.644808" y2="470.567174"  fill="none" stroke ="blue" stroke-width="1" />
<line x1="386.556477" y1="198.856740" x2="423.534823" y2="202.103376"  fill="none" stroke ="blue" stroke-width="1" />
<line x1="489.340125" y1="47.866821" x2="487.356111" y2="36.184769"  fill="none" stroke ="blue" stroke-width="1" />
<line x1="489.943736" y1="72.656957" x2="488.391938" y2="47.383833"  fill="none" stroke ="blue" stroke-width="1" />
<line x1="490.832294" y1="91.520389" x2="490.280368" y2="73.445635"  fill="none" stroke ="blue" stroke-width="1" />
<line x1="490.183194" y1="98.595649" x2="491.202049" y2="91.318283"  fill="none" stroke ="blue" stroke-width="1" />
<line x1="248.355213" y1="55.507697" x2="247.763608" y2="44.379659"  fill="none" stroke ="blue" stroke-width="1" />
<line x1="248.032743" y1="47.242975" x2="249.452946" y2="40.490104"  fill="none" stroke ="blue" stroke-width="1" />
<line x1="248.947461" y1="40.655068" x2="251.577218" y2="37.359615"  fill="none" stroke ="blue" stroke-width="1" />
<line x1="251.146526" y1="39.156571" x2="256.592077" y2="36.704482"  fill="none" stroke ="blue" stroke-width="1" />
<line x1="255.383625" y1="38.852957" x2="261.909802" y2="36.100578"  fill="none" stroke ="blue" stroke-width="1" />
<line x1="252.170018" y1="55.676719" x2="249.120573" y2="53.194963"  fill="none" stroke ="blue" stroke-width="1" />
<line x1="253.073903" y1="56.681741" x2="250.993289" y2="55.222457"  fill="none" stroke ="blue" stroke-width="1" />
<line x1="258.763433" y1="51.326020" x2="252.198696" y2="53.419637"  fill="none" stroke ="blue" stroke-width="1" />
<line x1="424.055643" y1="95.504535" x2="416.864517" y2="84.266743"  fill="none" stroke ="blue" stroke-width="1" />
<line x1="544.947138" y1="219.597198" x2="555.651660" y2="390.615693"  fill="none" stroke ="blue" stroke-width="1" />
<line x1="440.492883" y1="478.246635" x2="479.518271" y2="477.150477"  fill="none" stroke ="blue" stroke-width="1" />
<line x1="550.264700" y1="386.494088" x2="549.611806" y2="412.477682"  fill="none" stroke ="blue" stroke-width="1" />
<line x1="571.047680" y1="447.918275" x2="575.645767" y2="428.534578"  fill="none" stroke ="blue" stroke-width="1" />
<line x1="521.504337" y1="417.072910" x2="532.513357" y2="417.184713"  fill="none" stroke ="blue" stroke-width="1" />
<line x1="551.054626" y1="471.458919" x2="552.691651" y2="493.559875"  fill="none" stroke ="blue" stroke-width="1" />
<line x1="512.277274" y1="1.437201" x2="524.292150" y2="341.472010"  fill="none" stroke ="blue" stroke-width="1" />
<line x1="557.535493" y1="421.978197" x2="549.431692" y2="422.579686"  fill="none" stroke ="blue" stroke-width="1" />
<line x1="580.019809" y1="453.349453" x2="585.115690" y2="538.642452"  fill="none" stroke ="blue" stroke-width="1" />
<line x1="302.513585" y1="457.538347" x2="340.941844" y2="443.924477"  fill="none" stroke ="blue" stroke-width="1" />
<line x1="273.396680" y1="457.441857" x2="307.559185" y2="454.106140"  fill="none" stroke ="blue" stroke-width="1" />
<line x1="474.480227" y1="175.555628" x2="472.520946" y2="104.416798"  fill="none" stroke ="blue" stroke-width="1" />
<line x1="497.689086" y1="237.592523" x2="493.341966" y2="152.508074"  fill="none" stroke ="blue" stroke-width="1" />
<line x1="499.449154" y1="272.501962" x2="498.444328" y2="246.463558"  fill="none" stroke ="blue" stroke-width="1" />
<line x1="496.807603" y1="247.672873" x2="498.045734" y2="238.307737"  fill="none" stroke ="blue" stroke-width="1" />
<line x1="501.234978" y1="303.581188" x2="499.233086" y2="272.388773"  fill="none" stroke ="blue" stroke-width="1" />
<line x1="254.338347" y1="215.500691" x2="254.287096" y2="203.509458"  fill="none" stroke ="blue" stroke-width="1" />
<line x1="261.716077" y1="35.927302" x2="267.315858" y2="33.131214"  fill="none" stroke ="blue" stroke-width="1" />
<line x1="265.372684" y1="33.498915" x2="274.627776" y2="24.633391"  fill="none" stroke ="blue" stroke-width="1" />
<line x1="546.504356" y1="433.582887" x2="535.482245" y2="434.162189"  fill="none" stroke ="blue" stroke-width="1" />
<line x1="304.802793" y1="207.582159" x2="297.202825" y2="206.382258"  fill="none" stroke ="blue" stroke-width="1" />
<line x1="435.993973" y1="369.481219" x2="436.774071" y2="431.534269"  fill="none" stroke ="blue" stroke-width="1" />
<line x1="431.051652" y1="411.531975" x2="426.856123" y2="221.492138"  fill="none" stroke ="blue" stroke-width="1" />
<line x1="496.447191" y1="0.451180" x2="510.939794" y2="281.631958"  fill="none" stroke ="blue" stroke-width="1" />
<line x1="558.786476" y1="441.567018" x2="557.270574" y2="425.427623"  fill="none" stroke ="blue" stroke-width="1" />
<line x1="436.612104" y1="446.465515" x2="437.102063" y2="476.473842"  fill="none" stroke ="blue" stroke-width="1" />
<line x1="35.787813" y1="0.416530" x2="33.907527" y2="61.512542"  fill="none" stroke ="blue" stroke-width="1" />
<line x1="533.393961" y1="416.875431" x2="543.481528" y2="416.216994"  fill="none" stroke ="blue" stroke-width="1" />
<line x1="244.987717" y1="484.420178" x2="258.310150" y2="478.099822"  fill="none" stroke ="blue" stroke-width="1" />
<line x1="256.895094" y1="479.125560" x2="261.199668" y2="474.099195"  fill="none" stroke ="blue" stroke-width="1" />
<line x1="260.908428" y1="475.105566" x2="267.038142" y2="463.713425"  fill="none" stroke ="blue" stroke-width="1" />
<line x1="237.466940" y1="481.719031" x2="246.414047" y2="483.069468"  fill="none" stroke ="blue" stroke-width="1" />
<line x1="476.657014" y1="120.410382" x2="481.084010" y2="128.166669"  fill="none" stroke ="blue" stroke-width="1" />
<line x1="33.498970" y1="61.546850" x2="28.375973" y2="389.482440"  fill="none" stroke ="blue" stroke-width="1" />
<line x1="473.225996" y1="103.688296" x2="472.693605" y2="94.431353"  fill="none" stroke ="blue" stroke-width="1" />
<line x1="469.283220" y1="97.692580" x2="471.475870" y2="77.389399"  fill="none" stroke ="blue" stroke-width="1" />
<line x1="29.940045" y1="30.545418" x2="-0.060433" y2="16.715738"  fill="none" stroke ="blue" stroke-width="1" />
<line x1="470.847073" y1="76.624711" x2="466.156106" y2="14.450498"  fill="none" stroke ="blue" stroke-width="1" />
<line x1="570.223695" y1="301.372799" x2="576.117044" y2="427.564586"  fill="none" stroke ="blue" stroke-width="1" />
<line x1="274.474297" y1="202.729215" x2="291.484676" y2="204.636658"  fill="none" stroke ="blue" stroke-width="1" />
<line x1="486.879254" y1="134.859793" x2="478.326359" y2="129.793117"  fill="none" stroke ="blue" stroke-width="1" />
<line x1="269.815292" y1="40.559128" x2="292.677357" y2="38.783322"  fill="none" stroke ="blue" stroke-width="1" />
<line x1="511.180090" y1="281.621921" x2="513.698491" y2="329.542123"  fill="none" stroke ="blue" stroke-width="1" />
<line x1="513.467180" y1="329.562916" x2="515.011287" y2="379.453226"  fill="none" stroke ="blue" stroke-width="1" />
<line x1="170.685592" y1="490.052932" x2="186.272187" y2="484.821279"  fill="none" stroke ="blue" stroke-width="1" />
<line x1="186.022684" y1="484.372797" x2="215.943549" y2="460.045535"  fill="none" stroke ="blue" stroke-width="1" />
<line x1="213.735411" y1="460.843356" x2="227.586417" y2="444.715397"  fill="none" stroke ="blue" stroke-width="1" />
<line x1="500.017689" y1="140.522261" x2="493.554990" y2="0.497462"  fill="none" stroke ="blue" stroke-width="1" />
<line x1="542.660372" y1="432.614032" x2="546.364962" y2="427.403982"  fill="none" stroke ="blue" stroke-width="1" />
<line x1="534.522122" y1="431.593972" x2="542.498639" y2="431.432677"  fill="none" stroke ="blue" stroke-width="1" />
<line x1="484.226301" y1="483.486504" x2="485.248975" y2="538.523246"  fill="none" stroke ="blue" stroke-width="1" />
<line x1="569.394410" y1="527.513596" x2="567.555949" y2="513.235278"  fill="none" stroke ="blue" stroke-width="1" />
<line x1="567.303879" y1="270.382655" x2="569.364122" y2="302.053477"  fill="none" stroke ="blue" stroke-width="1" />
<line x1="927.387783" y1="187.576616" x2="920.971134" y2="178.178335"  fill="none" stroke ="blue" stroke-width="1" />
<line x1="569.230006" y1="249.456664" x2="565.768163" y2="271.024570"  fill="none" stroke ="blue" stroke-width="1" />
<line x1="266.555668" y1="489.514808" x2="226.402217" y2="491.717444"  fill="none" stroke ="blue" stroke-width="1" />
<line x1="627.965511" y1="114.519156" x2="629.079767" y2="87.441557"  fill="none" stroke ="blue" stroke-width="1" />
<line x1="639.038085" y1="290.534119" x2="636.004374" y2="249.462745"  fill="none" stroke ="blue" stroke-width="1" />
<line x1="226.411330" y1="491.624751" x2="170.433728" y2="493.351040"  fill="none" stroke ="blue" stroke-width="1" />
<line x1="567.057960" y1="232.489394" x2="566.984252" y2="242.510917"  fill="none" stroke ="blue" stroke-width="1" />
<line x1="567.547160" y1="243.286863" x2="568.683488" y2="248.869730"  fill="none" stroke ="blue" stroke-width="1" />
<line x1="489.442567" y1="445.520392" x2="489.273794" y2="428.492331"  fill="none" stroke ="blue" stroke-width="1" />
<line x1="545.586689" y1="498.091963" x2="530.614882" y2="500.284480"  fill="none" stroke ="blue" stroke-width="1" />
<line x1="356.400648" y1="43.731821" x2="337.452370" y2="35.611137"  fill="none" stroke ="blue" stroke-width="1" />
<line x1="562.881863" y1="504.500979" x2="562.892491" y2="489.499570"  fill="none" stroke ="blue" stroke-width="1" />
<line x1="562.939883" y1="194.594579" x2="564.695167" y2="223.548791"  fill="none" stroke ="blue" stroke-width="1" />
<line x1="505.123418" y1="0.418952" x2="508.472449" y2="67.501375"  fill="none" stroke ="blue" stroke-width="1" />
<line x1="508.225277" y1="67.539176" x2="508.930524" y2="90.486769"  fill="none" stroke ="blue" stroke-width="1" />
<line x1="628.486219" y1="87.272646" x2="627.130396" y2="75.427841"  fill="none" stroke ="blue" stroke-width="1" />
<line x1="627.798082" y1="126.516096" x2="627.946855" y2="114.517941"  fill="none" stroke ="blue" stroke-width="1" />
<line x1="558.701798" y1="164.519326" x2="559.450748" y2="195.452769"  fill="none" stroke ="blue" stroke-width="1" />
<line x1="627.120402" y1="246.508947" x2="626.742955" y2="230.494274"  fill="none" stroke ="blue" stroke-width="1" />
<line x1="667.095187" y1="264.566947" x2="664.600708" y2="249.483345"  fill="none" stroke ="blue" stroke-width="1" />
<line x1="424.916302" y1="420.750239" x2="430.924371" y2="410.755088"  fill="none" stroke ="blue" stroke-width="1" />
<line x1="-0.135492" y1="8.049481" x2="28.396847" y2="19.751512"  fill="none" stroke ="blue" stroke-width="1" />
<line x1="293.534916" y1="32.679230" x2="279.517742" y2="32.082934"  fill="none" stroke ="blue" stroke-width="1" />
<line x1="476.407129" y1="230.540135" x2="474.390031" y2="175.614210"  fill="none" stroke ="blue" stroke-width="1" />
<line x1="653.471875" y1="297.441857" x2="655.811001" y2="336.541219"  fill="none" stroke ="blue" stroke-width="1" />
<line x1="537.597821" y1="28.518719" x2="537.016253" y2="0.489289"  fill="none" stroke ="blue" stroke-width="1" />
<line x1="628.338751" y1="21.505903" x2="630.061173" y2="68.552677"  fill="none" stroke ="blue" stroke-width="1" />
<line x1="642.344743" y1="276.438122" x2="652.171941" y2="410.597281"  fill="none" stroke ="blue" stroke-width="1" />
<line x1="833.405908" y1="374.673007" x2="839.295443" y2="377.876118"  fill="none" stroke ="blue" stroke-width="1" />
<line x1="837.589044" y1="378.174128" x2="840.032684" y2="386.340606"  fill="none" stroke ="blue" stroke-width="1" />
<line x1="483.228741" y1="475.398961" x2="484.237559" y2="482.675036"  fill="none" stroke ="blue" stroke-width="1" />
<line x1="20.667575" y1="496.599812" x2="0.376803" y2="499.691446"  fill="none" stroke ="blue" stroke-width="1" />
<line x1="555.463807" y1="70.418388" x2="556.838036" y2="103.485952"  fill="none" stroke ="blue" stroke-width="1" />
<line x1="625.113254" y1="219.523047" x2="621.476871" y2="158.501378"  fill="none" stroke ="blue" stroke-width="1" />
<line x1="637.838017" y1="230.680477" x2="641.713390" y2="266.368237"  fill="none" stroke ="blue" stroke-width="1" />
<line x1="436.384484" y1="432.125857" x2="438.785613" y2="437.802191"  fill="none" stroke ="blue" stroke-width="1" />
<line x1="436.872134" y1="436.824445" x2="438.182103" y2="443.363351"  fill="none" stroke ="blue" stroke-width="1" />
<line x1="434.820856" y1="441.260444" x2="435.650591" y2="445.835416"  fill="none" stroke ="blue" stroke-width="1" />
<line x1="489.920817" y1="457.461752" x2="489.651087" y2="447.442093"  fill="none" stroke ="blue" stroke-width="1" />
<line x1="625.989770" y1="66.525382" x2="623.798904" y2="22.485130"  fill="none" stroke ="blue" stroke-width="1" />
<line x1="632.275290" y1="103.513113" x2="632.821279" y2="154.507267"  fill="none" stroke ="blue" stroke-width="1" />
<line x1="938.672795" y1="193.810289" x2="927.615240" y2="191.040018"  fill="none" stroke ="blue" stroke-width="1" />
<line x1="522.494843" y1="501.026654" x2="493.487392" y2="501.342665"  fill="none" stroke ="blue" stroke-width="1" />
<line x1="626.640023" y1="137.512946" x2="627.573673" y2="127.414358"  fill="none" stroke ="blue" stroke-width="1" />
<line x1="562.722859" y1="144.430571" x2="561.095826" y2="162.642569"  fill="none" stroke ="blue" stroke-width="1" />
<line x1="647.848015" y1="235.459022" x2="651.735274" y2="268.472297"  fill="none" stroke ="blue" stroke-width="1" />
<line x1="634.899331" y1="249.484805" x2="634.365949" y2="235.467050"  fill="none" stroke ="blue" stroke-width="1" />
<line x1="477.212593" y1="268.536400" x2="476.163311" y2="231.424699"  fill="none" stroke ="blue" stroke-width="1" />
<line x1="507.804169" y1="291.484377" x2="500.460323" y2="148.502038"  fill="none" stroke ="blue" stroke-width="1" />
<line x1="630.724727" y1="71.452942" x2="633.943849" y2="86.825861"  fill="none" stroke ="blue" stroke-width="1" />
<line x1="519.604590" y1="87.495190" x2="518.868215" y2="71.483066"  fill="none" stroke ="blue" stroke-width="1" />
<line x1="639.347178" y1="81.500508" x2="639.423677" y2="104.503579"  fill="none" stroke ="blue" stroke-width="1" />
<line x1="640.257719" y1="105.464411" x2="641.058835" y2="122.520721"  fill="none" stroke ="blue" stroke-width="1" />
<line x1="559.929512" y1="124.467940" x2="561.362022" y2="143.659584"  fill="none" stroke ="blue" stroke-width="1" />
<line x1="633.128335" y1="157.463825" x2="636.071345" y2="208.582251"  fill="none" stroke ="blue" stroke-width="1" />
<line x1="595.159134" y1="268.528606" x2="592.554785" y2="237.495402"  fill="none" stroke ="blue" stroke-width="1" />
<line x1="631.653158" y1="248.489038" x2="632.731470" y2="263.555006"  fill="none" stroke ="blue" stroke-width="1" />
<line x1="725.515162" y1="258.406436" x2="726.720085" y2="271.479715"  fill="none" stroke ="blue" stroke-width="1" />
<line x1="654.020759" y1="356.546318" x2="652.077926" y2="336.444145"  fill="none" stroke ="blue" stroke-width="1" />
<line x1="652.411844" y1="412.432753" x2="654.701904" y2="443.485110"  fill="none" stroke ="blue" stroke-width="1" />
<line x1="608.695214" y1="82.480546" x2="610.086514" y2="96.441550"  fill="none" stroke ="blue" stroke-width="1" />
<line x1="561.778998" y1="224.292726" x2="563.112901" y2="232.236659"  fill="none" stroke ="blue" stroke-width="1" />
<line x1="669.310525" y1="245.579297" x2="671.036162" y2="271.464256"  fill="none" stroke ="blue" stroke-width="1" />
<line x1="28.414019" y1="460.406259" x2="29.764634" y2="473.575418"  fill="none" stroke ="blue" stroke-width="1" />
<line x1="674.348118" y1="59.514323" x2="672.376337" y2="38.605968"  fill="none" stroke ="blue" stroke-width="1" />
<line x1="631.251217" y1="194.553434" x2="630.393347" y2="174.504564"  fill="none" stroke ="blue" stroke-width="1" />
<line x1="590.410987" y1="222.537525" x2="590.948964" y2="209.477302"  fill="none" stroke ="blue" stroke-width="1" />
<line x1="643.946427" y1="352.539883" x2="640.987123" y2="311.464905"  fill="none" stroke ="blue" stroke-width="1" />
<line x1="27.256840" y1="445.496574" x2="27.235453" y2="459.501123"  fill="none" stroke ="blue" stroke-width="1" />
<line x1="609.515742" y1="485.566930" x2="608.351246" y2="468.442115"  fill="none" stroke ="blue" stroke-width="1" />
<line x1="647.180224" y1="266.442429" x2="645.828580" y2="250.472191"  fill="none" stroke ="blue" stroke-width="1" />
<line x1="596.045123" y1="287.532927" x2="594.738542" y2="269.482733"  fill="none" stroke ="blue" stroke-width="1" />
<line x1="639.839941" y1="350.476298" x2="641.232526" y2="370.448925"  fill="none" stroke ="blue" stroke-width="1" />
<line x1="550.741806" y1="130.424552" x2="554.686158" y2="143.065953"  fill="none" stroke ="blue" stroke-width="1" />
<line x1="588.408835" y1="189.534470" x2="586.891037" y2="141.487647"  fill="none" stroke ="blue" stroke-width="1" />
<line x1="623.679154" y1="252.389680" x2="626.125270" y2="278.535059"  fill="none" stroke ="blue" stroke-width="1" />
<line x1="608.269293" y1="467.459815" x2="605.815410" y2="420.483524"  fill="none" stroke ="blue" stroke-width="1" />
<line x1="427.329478" y1="425.547793" x2="431.851399" y2="441.681785"  fill="none" stroke ="blue" stroke-width="1" />
<line x1="568.082217" y1="462.567018" x2="566.130284" y2="450.398894"  fill="none" stroke ="blue" stroke-width="1" />
<line x1="635.285493" y1="292.435781" x2="636.273337" y2="304.518531"  fill="none" stroke ="blue" stroke-width="1" />
<line x1="659.620894" y1="383.487502" x2="660.664893" y2="393.586332"  fill="none" stroke ="blue" stroke-width="1" />
<line x1="591.100106" y1="48.495342" x2="591.309750" y2="30.497784"  fill="none" stroke ="blue" stroke-width="1" />
<line x1="590.583244" y1="206.593697" x2="588.933854" y2="190.455658"  fill="none" stroke ="blue" stroke-width="1" />
<line x1="705.512332" y1="330.497811" x2="708.357758" y2="346.525253"  fill="none" stroke ="blue" stroke-width="1" />
<line x1="603.940452" y1="382.461131" x2="601.823398" y2="358.471461"  fill="none" stroke ="blue" stroke-width="1" />
<line x1="250.262918" y1="379.512444" x2="251.681693" y2="406.542951"  fill="none" stroke ="blue" stroke-width="1" />
<line x1="611.817557" y1="538.523585" x2="610.848655" y2="510.487951"  fill="none" stroke ="blue" stroke-width="1" />
<line x1="607.183022" y1="46.452974" x2="608.357387" y2="63.509819"  fill="none" stroke ="blue" stroke-width="1" />
<line x1="656.290392" y1="341.437844" x2="657.637479" y2="358.567828"  fill="none" stroke ="blue" stroke-width="1" />
<line x1="651.408898" y1="455.506488" x2="648.341932" y2="412.440042"  fill="none" stroke ="blue" stroke-width="1" />
<line x1="466.387724" y1="14.443213" x2="465.966051" y2="0.425816"  fill="none" stroke ="blue" stroke-width="1" />
<line x1="227.329916" y1="20.511182" x2="226.003437" y2="0.335409"  fill="none" stroke ="blue" stroke-width="1" />
<line x1="677.269475" y1="33.513888" x2="678.473638" y2="53.501588"  fill="none" stroke ="blue" stroke-width="1" />
<line x1="539.048843" y1="44.482374" x2="538.631788" y2="31.495768"  fill="none" stroke ="blue" stroke-width="1" />
<line x1="595.021423" y1="31.495512" x2="594.871303" y2="47.503482"  fill="none" stroke ="blue" stroke-width="1" />
<line x1="491.203871" y1="105.593164" x2="489.306113" y2="99.560998"  fill="none" stroke ="blue" stroke-width="1" />
<line x1="640.349432" y1="183.549729" x2="639.871159" y2="172.483958"  fill="none" stroke ="blue" stroke-width="1" />
<line x1="618.310608" y1="219.512295" x2="616.880044" y2="197.475329"  fill="none" stroke ="blue" stroke-width="1" />
<line x1="632.198661" y1="299.649145" x2="629.784190" y2="278.582038"  fill="none" stroke ="blue" stroke-width="1" />
<line x1="646.708439" y1="387.559805" x2="644.137200" y2="353.527411"  fill="none" stroke ="blue" stroke-width="1" />
<line x1="655.699565" y1="380.584905" x2="654.628382" y2="370.486382"  fill="none" stroke ="blue" stroke-width="1" />
<line x1="833.155539" y1="391.447115" x2="834.401542" y2="383.331355"  fill="none" stroke ="blue" stroke-width="1" />
<line x1="834.094254" y1="383.045729" x2="831.057801" y2="379.073596"  fill="none" stroke ="blue" stroke-width="1" />
<line x1="626.291618" y1="176.427273" x2="627.219386" y2="186.525781"  fill="none" stroke ="blue" stroke-width="1" />
<line x1="689.306602" y1="254.480405" x2="688.303695" y2="264.378790"  fill="none" stroke ="blue" stroke-width="1" />
<line x1="685.229719" y1="269.511800" x2="684.223650" y2="246.468406"  fill="none" stroke ="blue" stroke-width="1" />
<line x1="598.850060" y1="316.566965" x2="597.197837" y2="300.531133"  fill="none" stroke ="blue" stroke-width="1" />
<line x1="685.437857" y1="329.354282" x2="687.352677" y2="341.678264"  fill="none" stroke ="blue" stroke-width="1" />
<line x1="657.123861" y1="359.548108" x2="659.814803" y2="380.587636"  fill="none" stroke ="blue" stroke-width="1" />
<line x1="657.856028" y1="497.485990" x2="658.800560" y2="521.488172"  fill="none" stroke ="blue" stroke-width="1" />
<line x1="562.520414" y1="109.345157" x2="560.393710" y2="122.799339"  fill="none" stroke ="blue" stroke-width="1" />
<line x1="659.346034" y1="177.447147" x2="657.848659" y2="153.478219"  fill="none" stroke ="blue" stroke-width="1" />
<line x1="677.967371" y1="248.420596" x2="680.363340" y2="262.523218"  fill="none" stroke ="blue" stroke-width="1" />
<line x1="634.033241" y1="329.532818" x2="631.859414" y2="298.615351"  fill="none" stroke ="blue" stroke-width="1" />
<line x1="671.492330" y1="327.537733" x2="671.949415" y2="315.517089"  fill="none" stroke ="blue" stroke-width="1" />
<line x1="582.254870" y1="211.521632" x2="580.400536" y2="190.508777"  fill="none" stroke ="blue" stroke-width="1" />
<line x1="613.751716" y1="51.487910" x2="614.281115" y2="62.510513"  fill="none" stroke ="blue" stroke-width="1" />
<line x1="241.276155" y1="130.531898" x2="241.686434" y2="120.548759"  fill="none" stroke ="blue" stroke-width="1" />
<line x1="248.348142" y1="136.694364" x2="240.954802" y2="130.917895"  fill="none" stroke ="blue" stroke-width="1" />
<line x1="611.356969" y1="194.506360" x2="610.822490" y2="182.485661"  fill="none" stroke ="blue" stroke-width="1" />
<line x1="557.972781" y1="412.467323" x2="557.536760" y2="419.502278"  fill="none" stroke ="blue" stroke-width="1" />
<line x1="603.643073" y1="529.495482" x2="603.106720" y2="512.512420"  fill="none" stroke ="blue" stroke-width="1" />
<line x1="576.288871" y1="3.420649" x2="577.005967" y2="10.549694"  fill="none" stroke ="blue" stroke-width="1" />
<line x1="559.892062" y1="36.461067" x2="561.386608" y2="51.511260"  fill="none" stroke ="blue" stroke-width="1" />
<line x1="619.731498" y1="36.488119" x2="620.399578" y2="49.505154"  fill="none" stroke ="blue" stroke-width="1" />
<line x1="629.795831" y1="268.468562" x2="627.671833" y2="248.481739"  fill="none" stroke ="blue" stroke-width="1" />
<line x1="632.016852" y1="503.498336" x2="631.972067" y2="516.501626"  fill="none" stroke ="blue" stroke-width="1" />
<line x1="610.336493" y1="107.505441" x2="610.902645" y2="124.519877"  fill="none" stroke ="blue" stroke-width="1" />
<line x1="664.340133" y1="237.363904" x2="662.420342" y2="225.512904"  fill="none" stroke ="blue" stroke-width="1" />
<line x1="600.991355" y1="249.473191" x2="600.009179" y2="231.472218"  fill="none" stroke ="blue" stroke-width="1" />
<line x1="617.004102" y1="244.536540" x2="617.956819" y2="257.466340"  fill="none" stroke ="blue" stroke-width="1" />
<line x1="631.754270" y1="345.479052" x2="634.065679" y2="373.535781"  fill="none" stroke ="blue" stroke-width="1" />
<line x1="692.996245" y1="395.485317" x2="693.470126" y2="411.500884"  fill="none" stroke ="blue" stroke-width="1" />
<line x1="545.278733" y1="36.493130" x2="544.564360" y2="59.501998"  fill="none" stroke ="blue" stroke-width="1" />
<line x1="607.339936" y1="117.504435" x2="606.896939" y2="101.516710"  fill="none" stroke ="blue" stroke-width="1" />
<line x1="549.702280" y1="110.273369" x2="548.026488" y2="123.566372"  fill="none" stroke ="blue" stroke-width="1" />
<line x1="514.513829" y1="423.730848" x2="508.475593" y2="424.092577"  fill="none" stroke ="blue" stroke-width="1" />
<line x1="508.071536" y1="420.209317" x2="502.427630" y2="420.944183"  fill="none" stroke ="blue" stroke-width="1" />
<line x1="655.155687" y1="529.509854" x2="654.640168" y2="511.495989"  fill="none" stroke ="blue" stroke-width="1" />
<line x1="571.681507" y1="212.519796" x2="570.268544" y2="225.474756"  fill="none" stroke ="blue" stroke-width="1" />
<line x1="665.995601" y1="38.586027" x2="669.063591" y2="56.574431"  fill="none" stroke ="blue" stroke-width="1" />
<line x1="597.112465" y1="186.528506" x2="595.857945" y2="169.473670"  fill="none" stroke ="blue" stroke-width="1" />
<line x1="584.482058" y1="189.501373" x2="585.401174" y2="201.507566"  fill="none" stroke ="blue" stroke-width="1" />
<line x1="651.153301" y1="330.512290" x2="650.016586" y2="298.446238"  fill="none" stroke ="blue" stroke-width="1" />
<line x1="609.840365" y1="493.552100" x2="609.200019" y2="485.444710"  fill="none" stroke ="blue" stroke-width="1" />
<line x1="568.003998" y1="166.527922" x2="569.244892" y2="188.570656"  fill="none" stroke ="blue" stroke-width="1" />
<line x1="710.498757" y1="297.500098" x2="709.156623" y2="280.527152"  fill="none" stroke ="blue" stroke-width="1" />
<line x1="636.923596" y1="311.467084" x2="638.634893" y2="333.489518"  fill="none" stroke ="blue" stroke-width="1" />
<line x1="606.578465" y1="511.497034" x2="607.334751" y2="531.506246"  fill="none" stroke ="blue" stroke-width="1" />
<line x1="227.950213" y1="129.539333" x2="227.290127" y2="103.530706"  fill="none" stroke ="blue" stroke-width="1" />
<line x1="638.441413" y1="128.505645" x2="636.991028" y2="113.452688"  fill="none" stroke ="blue" stroke-width="1" />
<line x1="593.556195" y1="193.492980" x2="595.554998" y2="209.493129"  fill="none" stroke ="blue" stroke-width="1" />
<line x1="561.953633" y1="527.442733" x2="562.138547" y2="522.449581"  fill="none" stroke ="blue" stroke-width="1" />
<line x1="651.834409" y1="274.479018" x2="653.154697" y2="295.521666"  fill="none" stroke ="blue" stroke-width="1" />
<line x1="662.142722" y1="289.524750" x2="663.112705" y2="303.526830"  fill="none" stroke ="blue" stroke-width="1" />
</svg>
