<?xml version="1.0" standalone="no"?>
<!DOCTYPE svg PUBLIC "-//W3C//DTD SVG 1.1//EN"
 "http://www.w3.org/Graphics/SVG/1.1/DTD/svg11.dtd">
<svg width="100px" height="771px" version="1.1"
 xmlns="http://www.w3.org/2000/svg" xmlns:xlink="http://www.w3.org/1999/xlink">
<path d="M 90.465636,14.907019 A321.464605,321.464605 0.000000 0,1 90.552483,47.120583" fill="none" stroke ="red" stroke-width="1" />
<path d="M 26.145044,326.224436 A18.791715,18.791715 0.000000 0,1 29.691759,346.294011" fill="none" stroke ="red" stroke-width="1" />
<path d="M 32.215667,44.977645 A678.854817,678.854817 0.000000 0,1 32.031819,65.012931" fill="none" stroke ="red" stroke-width="1" />
<path d="M 91.006348,54.930330 A159.290423,159.290423 0.000000 0,1 90.431188,74.121203" fill="none" stroke ="red" stroke-width="1" />
<path d="M 32.371002,44.005721 A158.660378,158.660378 0.000000 0,1 32.723015,32.251556" fill="none" stroke ="red" stroke-width="1" />
<path d="M 30.753109,399.181149 A189.337348,189.337348 0.000000 0,1 30.784222,416.994128" fill="none" stroke ="red" stroke-width="1" />
<path d="M 7.582763,110.121248 A28.052271,28.052271 0.000000 0,1 9.605554,94.619119" fill="none" stroke ="red" stroke-width="1" />
<path d="M 61.703471,59.286104 A209.608652,209.608652 0.000000 0,1 61.532134,73.020655" fill="none" stroke ="red" stroke-width="1" />
<path d="M 88.001418,368.980562 A254.294866,254.294866 0.000000 0,1 68.679667,368.930470" fill="none" stroke ="red" stroke-width="1" />
<path d="M 29.768238,389.969245 A17.043095,17.043095 0.000000 0,1 12.714284,383.395252" fill="none" stroke ="red" stroke-width="1" />
<path d="M 85.817402,747.114418 A22.337542,22.337542 0.000000 0,1 87.671333,761.011643" fill="none" stroke ="red" stroke-width="1" />
<path d="M 13.942355,723.028680 A450.099410,450.099410 0.000000 0,1 22.012204,768.976813" fill="none" stroke ="red" stroke-width="1" />
<path d="M 13.906403,721.359924 A9.256008,9.256008 0.000000 0,1 9.644359,706.110956" fill="none" stroke ="red" stroke-width="1" />
<path d="M 86.604651,683.151676 A15.541809,15.541809 0.000000 0,1 87.353885,695.037032" fill="none" stroke ="red" stroke-width="1" />
<line x1="6.657714" y1="370.496998" x2="5.837884" y2="600.504769"  fill="none" stroke ="blue" stroke-width="1" />
<line x1="5.743676" y1="601.498041" x2="5.308564" y2="769.502094"  fill="none" stroke ="blue" stroke-width="1" />
<line x1="7.255012" y1="225.493050" x2="7.420871" y2="243.509934"  fill="none" stroke ="blue" stroke-width="1" />
<line x1="7.693355" y1="244.466942" x2="7.433711" y2="266.510998"  fill="none" stroke ="blue" stroke-width="1" />
<line x1="7.859660" y1="267.141131" x2="7.049271" y2="277.619816"  fill="none" stroke ="blue" stroke-width="1" />
<line x1="68.560034" y1="71.500023" x2="68.549717" y2="98.500401"  fill="none" stroke ="blue" stroke-width="1" />
<line x1="68.038049" y1="224.491780" x2="67.582520" y2="305.506087"  fill="none" stroke ="blue" stroke-width="1" />
<line x1="7.574342" y1="194.486079" x2="7.357324" y2="224.506198"  fill="none" stroke ="blue" stroke-width="1" />
<line x1="7.135556" y1="278.498423" x2="6.962427" y2="318.506328"  fill="none" stroke ="blue" stroke-width="1" />
<line x1="7.020501" y1="317.497132" x2="6.977643" y2="369.501218"  fill="none" stroke ="blue" stroke-width="1" />
<line x1="68.857489" y1="0.504617" x2="68.633041" y2="66.503853"  fill="none" stroke ="blue" stroke-width="1" />
<line x1="39.444672" y1="0.499777" x2="38.503456" y2="233.504053"  fill="none" stroke ="blue" stroke-width="1" />
<line x1="38.515201" y1="234.495978" x2="36.330437" y2="769.503391"  fill="none" stroke ="blue" stroke-width="1" />
<line x1="68.482222" y1="98.500924" x2="68.404177" y2="181.499910"  fill="none" stroke ="blue" stroke-width="1" />
<line x1="67.581140" y1="307.500334" x2="67.366854" y2="359.503572"  fill="none" stroke ="blue" stroke-width="1" />
<line x1="8.400705" y1="27.494165" x2="8.595129" y2="57.505862"  fill="none" stroke ="blue" stroke-width="1" />
<line x1="9.355016" y1="54.348669" x2="8.136822" y2="71.615480"  fill="none" stroke ="blue" stroke-width="1" />
<line x1="8.488582" y1="0.490676" x2="8.743487" y2="27.516567"  fill="none" stroke ="blue" stroke-width="1" />
<line x1="7.954241" y1="157.498923" x2="7.883222" y2="193.502728"  fill="none" stroke ="blue" stroke-width="1" />
<line x1="90.390317" y1="267.503407" x2="90.451580" y2="251.495988"  fill="none" stroke ="blue" stroke-width="1" />
<line x1="7.805423" y1="142.443586" x2="7.590535" y2="156.516652"  fill="none" stroke ="blue" stroke-width="1" />
<line x1="67.311905" y1="385.497593" x2="67.293658" y2="394.503634"  fill="none" stroke ="blue" stroke-width="1" />
<line x1="67.136825" y1="395.498628" x2="65.723555" y2="769.504623"  fill="none" stroke ="blue" stroke-width="1" />
<line x1="32.477338" y1="140.511765" x2="32.292898" y2="124.479374"  fill="none" stroke ="blue" stroke-width="1" />
<line x1="90.372566" y1="307.500173" x2="90.376254" y2="267.499896"  fill="none" stroke ="blue" stroke-width="1" />
<line x1="32.034263" y1="159.528238" x2="32.366458" y2="141.479137"  fill="none" stroke ="blue" stroke-width="1" />
<line x1="90.809368" y1="16.571064" x2="91.243556" y2="2.461336"  fill="none" stroke ="blue" stroke-width="1" />
<line x1="67.379096" y1="360.487440" x2="67.109819" y2="384.518039"  fill="none" stroke ="blue" stroke-width="1" />
<line x1="61.912079" y1="59.512184" x2="62.421338" y2="0.490693"  fill="none" stroke ="blue" stroke-width="1" />
<line x1="8.259203" y1="110.465779" x2="7.931343" y2="141.515114"  fill="none" stroke ="blue" stroke-width="1" />
<line x1="30.711680" y1="474.523731" x2="31.554289" y2="431.501063"  fill="none" stroke ="blue" stroke-width="1" />
<line x1="32.341693" y1="123.502467" x2="32.284154" y2="96.491939"  fill="none" stroke ="blue" stroke-width="1" />
<line x1="31.462857" y1="383.502910" x2="31.350603" y2="343.497613"  fill="none" stroke ="blue" stroke-width="1" />
<line x1="90.473428" y1="250.502922" x2="90.674583" y2="183.494520"  fill="none" stroke ="blue" stroke-width="1" />
<line x1="89.614284" y1="442.511650" x2="90.367309" y2="370.488157"  fill="none" stroke ="blue" stroke-width="1" />
<line x1="88.181525" y1="467.592929" x2="89.019447" y2="443.414036"  fill="none" stroke ="blue" stroke-width="1" />
<line x1="32.170778" y1="95.597814" x2="32.493857" y2="83.473190"  fill="none" stroke ="blue" stroke-width="1" />
<line x1="90.199208" y1="332.500501" x2="90.190735" y2="310.499734"  fill="none" stroke ="blue" stroke-width="1" />
<line x1="61.156546" y1="251.510284" x2="61.481794" y2="167.496058"  fill="none" stroke ="blue" stroke-width="1" />
<line x1="31.455690" y1="335.512218" x2="31.780690" y2="283.489259"  fill="none" stroke ="blue" stroke-width="1" />
<line x1="31.674262" y1="286.517219" x2="32.195140" y2="190.492922"  fill="none" stroke ="blue" stroke-width="1" />
<line x1="32.388609" y1="80.501457" x2="32.367628" y2="64.498862"  fill="none" stroke ="blue" stroke-width="1" />
<line x1="60.448363" y1="447.522059" x2="60.006750" y2="426.468395"  fill="none" stroke ="blue" stroke-width="1" />
<line x1="8.410554" y1="72.473039" x2="7.971245" y2="106.518984"  fill="none" stroke ="blue" stroke-width="1" />
<line x1="89.776626" y1="55.445902" x2="90.360462" y2="47.639136"  fill="none" stroke ="blue" stroke-width="1" />
<line x1="30.768168" y1="169.714975" x2="31.121302" y2="159.418419"  fill="none" stroke ="blue" stroke-width="1" />
<line x1="60.306502" y1="474.502481" x2="59.973142" y2="448.506756"  fill="none" stroke ="blue" stroke-width="1" />
<line x1="32.012111" y1="189.500638" x2="32.002682" y2="167.500642"  fill="none" stroke ="blue" stroke-width="1" />
<line x1="31.242509" y1="399.533655" x2="31.653709" y2="390.461641"  fill="none" stroke ="blue" stroke-width="1" />
<line x1="70.496170" y1="355.247588" x2="88.507197" y2="354.974268"  fill="none" stroke ="blue" stroke-width="1" />
<line x1="59.581490" y1="95.415745" x2="43.447155" y2="94.203121"  fill="none" stroke ="blue" stroke-width="1" />
<line x1="32.698196" y1="35.524181" x2="33.405474" y2="0.477911"  fill="none" stroke ="blue" stroke-width="1" />
<line x1="80.856971" y1="395.463030" x2="81.544628" y2="383.502566"  fill="none" stroke ="blue" stroke-width="1" />
<line x1="68.194206" y1="181.504653" x2="67.912665" y2="223.509469"  fill="none" stroke ="blue" stroke-width="1" />
<line x1="90.864744" y1="87.506798" x2="90.810633" y2="74.490395"  fill="none" stroke ="blue" stroke-width="1" />
<line x1="89.503233" y1="498.500678" x2="89.482830" y2="468.499332"  fill="none" stroke ="blue" stroke-width="1" />
<line x1="90.782114" y1="182.509538" x2="90.604352" y2="150.493868"  fill="none" stroke ="blue" stroke-width="1" />
<line x1="59.506348" y1="601.516264" x2="60.193530" y2="474.492932"  fill="none" stroke ="blue" stroke-width="1" />
<line x1="61.536940" y1="150.520906" x2="62.060340" y2="74.490089"  fill="none" stroke ="blue" stroke-width="1" />
<line x1="61.436166" y1="166.524322" x2="61.067418" y2="150.395576"  fill="none" stroke ="blue" stroke-width="1" />
<line x1="90.833093" y1="105.511870" x2="90.984693" y2="88.486507"  fill="none" stroke ="blue" stroke-width="1" />
<line x1="29.395868" y1="490.936187" x2="24.439609" y2="489.752964"  fill="none" stroke ="blue" stroke-width="1" />
<line x1="25.420234" y1="490.767415" x2="19.382926" y2="491.424778"  fill="none" stroke ="blue" stroke-width="1" />
<line x1="31.118424" y1="492.046078" x2="30.029367" y2="489.290764"  fill="none" stroke ="blue" stroke-width="1" />
<line x1="90.124469" y1="353.499611" x2="90.145170" y2="333.498598"  fill="none" stroke ="blue" stroke-width="1" />
<line x1="72.074789" y1="67.214794" x2="69.135475" y2="71.596981"  fill="none" stroke ="blue" stroke-width="1" />
<line x1="84.572740" y1="59.595820" x2="72.778341" y2="68.549368"  fill="none" stroke ="blue" stroke-width="1" />
<line x1="61.156229" y1="266.506622" x2="61.082217" y2="251.487275"  fill="none" stroke ="blue" stroke-width="1" />
<line x1="30.128375" y1="707.505386" x2="30.644387" y2="551.497170"  fill="none" stroke ="blue" stroke-width="1" />
<line x1="60.097889" y1="425.508728" x2="60.747934" y2="306.495892"  fill="none" stroke ="blue" stroke-width="1" />
<line x1="88.480228" y1="358.317453" x2="70.466579" y2="357.881756"  fill="none" stroke ="blue" stroke-width="1" />
<line x1="60.840172" y1="306.488568" x2="61.108764" y2="267.490418"  fill="none" stroke ="blue" stroke-width="1" />
<line x1="31.412611" y1="430.527190" x2="31.085876" y2="417.460345"  fill="none" stroke ="blue" stroke-width="1" />
<line x1="90.913477" y1="149.502898" x2="90.999598" y2="107.496924"  fill="none" stroke ="blue" stroke-width="1" />
<line x1="11.217525" y1="380.185670" x2="28.568493" y2="387.333742"  fill="none" stroke ="blue" stroke-width="1" />
<line x1="88.799783" y1="539.514781" x2="89.027578" y2="519.483256"  fill="none" stroke ="blue" stroke-width="1" />
<line x1="20.372039" y1="495.998617" x2="29.540499" y2="493.658684"  fill="none" stroke ="blue" stroke-width="1" />
<line x1="8.770147" y1="489.170286" x2="22.254275" y2="495.062349"  fill="none" stroke ="blue" stroke-width="1" />
<line x1="88.153368" y1="518.489690" x2="88.745054" y2="498.596518"  fill="none" stroke ="blue" stroke-width="1" />
<line x1="84.633073" y1="497.514857" x2="84.461458" y2="487.500660"  fill="none" stroke ="blue" stroke-width="1" />
<line x1="30.581141" y1="535.509230" x2="30.948454" y2="492.486753"  fill="none" stroke ="blue" stroke-width="1" />
<line x1="43.483951" y1="91.561510" x2="56.526327" y2="91.758697"  fill="none" stroke ="blue" stroke-width="1" />
<line x1="24.949574" y1="451.445382" x2="26.728007" y2="433.522625"  fill="none" stroke ="blue" stroke-width="1" />
<line x1="88.123924" y1="679.504035" x2="89.029500" y2="539.490489"  fill="none" stroke ="blue" stroke-width="1" />
<line x1="9.176701" y1="427.894154" x2="25.460507" y2="431.670306"  fill="none" stroke ="blue" stroke-width="1" />
<line x1="90.047351" y1="369.495760" x2="90.197303" y2="353.487797"  fill="none" stroke ="blue" stroke-width="1" />
<line x1="59.063538" y1="685.518386" x2="58.627452" y2="651.447172"  fill="none" stroke ="blue" stroke-width="1" />
<line x1="58.727948" y1="769.516947" x2="59.163824" y2="686.492985"  fill="none" stroke ="blue" stroke-width="1" />
<line x1="59.122643" y1="650.504450" x2="59.183004" y2="628.493646"  fill="none" stroke ="blue" stroke-width="1" />
<line x1="87.951123" y1="753.537075" x2="88.402847" y2="711.488213"  fill="none" stroke ="blue" stroke-width="1" />
<line x1="30.289748" y1="550.637581" x2="30.841482" y2="535.439790"  fill="none" stroke ="blue" stroke-width="1" />
<line x1="75.568371" y1="62.592556" x2="84.089479" y2="56.297992"  fill="none" stroke ="blue" stroke-width="1" />
<line x1="59.189636" y1="627.503748" x2="59.147463" y2="601.503816"  fill="none" stroke ="blue" stroke-width="1" />
<line x1="79.930940" y1="593.230273" x2="68.237150" y2="617.901426"  fill="none" stroke ="blue" stroke-width="1" />
<line x1="88.028214" y1="689.537853" x2="88.252843" y2="680.469108"  fill="none" stroke ="blue" stroke-width="1" />
<line x1="73.552346" y1="372.390047" x2="71.337266" y2="391.481119"  fill="none" stroke ="blue" stroke-width="1" />
<line x1="72.346453" y1="602.966047" x2="83.777979" y2="582.203639"  fill="none" stroke ="blue" stroke-width="1" />
<line x1="88.262728" y1="710.531594" x2="87.802086" y2="692.492286"  fill="none" stroke ="blue" stroke-width="1" />
<line x1="29.794393" y1="769.504725" x2="30.020770" y2="707.494600"  fill="none" stroke ="blue" stroke-width="1" />
<line x1="31.258310" y1="488.519636" x2="31.036968" y2="474.523137"  fill="none" stroke ="blue" stroke-width="1" />
<line x1="86.570707" y1="769.973698" x2="87.280832" y2="760.873049"  fill="none" stroke ="blue" stroke-width="1" />
<line x1="14.556548" y1="438.467188" x2="10.258444" y2="431.059910"  fill="none" stroke ="blue" stroke-width="1" />
<line x1="69.567334" y1="610.527156" x2="72.622205" y2="602.952593"  fill="none" stroke ="blue" stroke-width="1" />
<line x1="11.042622" y1="704.954029" x2="18.388882" y2="728.534617"  fill="none" stroke ="blue" stroke-width="1" />
<line x1="15.928700" y1="437.464317" x2="14.991561" y2="452.468243"  fill="none" stroke ="blue" stroke-width="1" />
<line x1="11.441501" y1="484.600747" x2="19.595555" y2="489.335435"  fill="none" stroke ="blue" stroke-width="1" />
<line x1="18.560114" y1="488.238510" x2="24.520621" y2="487.753331"  fill="none" stroke ="blue" stroke-width="1" />
<line x1="16.499722" y1="451.558529" x2="23.504307" y2="451.591741"  fill="none" stroke ="blue" stroke-width="1" />
<line x1="23.162876" y1="454.131563" x2="25.113354" y2="452.084381"  fill="none" stroke ="blue" stroke-width="1" />
<line x1="19.082468" y1="484.115208" x2="25.241883" y2="478.283583"  fill="none" stroke ="blue" stroke-width="1" />
<line x1="27.907844" y1="31.206736" x2="18.443153" y2="36.668636"  fill="none" stroke ="blue" stroke-width="1" />
<line x1="18.854250" y1="37.010004" x2="13.446663" y2="35.724337"  fill="none" stroke ="blue" stroke-width="1" />
<line x1="70.314048" y1="395.325286" x2="79.248469" y2="393.911007"  fill="none" stroke ="blue" stroke-width="1" />
<line x1="29.386961" y1="2.984006" x2="14.028681" y2="6.348543"  fill="none" stroke ="blue" stroke-width="1" />
<line x1="18.302352" y1="730.355932" x2="22.633292" y2="754.476066"  fill="none" stroke ="blue" stroke-width="1" />
<line x1="53.865066" y1="427.225458" x2="47.374302" y2="418.594529"  fill="none" stroke ="blue" stroke-width="1" />
<line x1="10.029356" y1="442.484142" x2="9.725327" y2="451.507592"  fill="none" stroke ="blue" stroke-width="1" />
<line x1="70.428057" y1="519.295439" x2="82.510112" y2="520.388196"  fill="none" stroke ="blue" stroke-width="1" />
<line x1="14.411350" y1="24.300975" x2="27.026468" y2="18.681961"  fill="none" stroke ="blue" stroke-width="1" />
<line x1="84.455080" y1="522.453021" x2="69.441301" y2="521.745354"  fill="none" stroke ="blue" stroke-width="1" />
<line x1="14.511391" y1="1.632813" x2="28.494300" y2="0.433544"  fill="none" stroke ="blue" stroke-width="1" />
<line x1="9.473023" y1="404.512551" x2="13.244328" y2="412.618945"  fill="none" stroke ="blue" stroke-width="1" />
<line x1="52.982855" y1="88.140641" x2="50.076019" y2="81.256766"  fill="none" stroke ="blue" stroke-width="1" />
<line x1="50.137949" y1="80.616617" x2="51.263958" y2="74.456851"  fill="none" stroke ="blue" stroke-width="1" />
<line x1="49.989296" y1="123.757467" x2="56.864445" y2="110.691771"  fill="none" stroke ="blue" stroke-width="1" />
<line x1="79.610156" y1="33.553246" x2="80.476097" y2="15.498854"  fill="none" stroke ="blue" stroke-width="1" />
<line x1="81.457394" y1="15.328289" x2="82.125192" y2="7.384427"  fill="none" stroke ="blue" stroke-width="1" />
<line x1="50.821753" y1="137.479538" x2="50.121011" y2="126.460508"  fill="none" stroke ="blue" stroke-width="1" />
<line x1="51.106904" y1="70.521473" x2="50.891250" y2="46.487517"  fill="none" stroke ="blue" stroke-width="1" />
<line x1="23.676654" y1="49.513177" x2="24.657594" y2="36.362570"  fill="none" stroke ="blue" stroke-width="1" />
<line x1="81.034101" y1="187.529160" x2="80.535406" y2="162.459511"  fill="none" stroke ="blue" stroke-width="1" />
<line x1="81.264473" y1="146.556348" x2="82.459050" y2="130.349565"  fill="none" stroke ="blue" stroke-width="1" />
<line x1="24.415558" y1="153.484865" x2="26.040731" y2="144.417682"  fill="none" stroke ="blue" stroke-width="1" />
<line x1="26.943946" y1="90.567652" x2="25.955662" y2="82.444563"  fill="none" stroke ="blue" stroke-width="1" />
<line x1="22.429486" y1="74.604875" x2="23.110535" y2="68.568887"  fill="none" stroke ="blue" stroke-width="1" />
<line x1="24.594525" y1="67.570039" x2="23.659944" y2="55.487628"  fill="none" stroke ="blue" stroke-width="1" />
<line x1="25.534357" y1="54.466974" x2="22.594746" y2="51.408924"  fill="none" stroke ="blue" stroke-width="1" />
<line x1="79.966516" y1="117.014952" x2="81.030770" y2="113.984095"  fill="none" stroke ="blue" stroke-width="1" />
<line x1="80.210895" y1="119.502290" x2="80.201887" y2="110.498297"  fill="none" stroke ="blue" stroke-width="1" />
<line x1="85.280502" y1="80.176459" x2="81.156507" y2="70.227858"  fill="none" stroke ="blue" stroke-width="1" />
<line x1="80.957720" y1="69.552008" x2="81.419172" y2="65.490816"  fill="none" stroke ="blue" stroke-width="1" />
<line x1="22.391231" y1="220.538174" x2="22.779681" y2="211.469147"  fill="none" stroke ="blue" stroke-width="1" />
<line x1="49.083264" y1="166.388358" x2="52.533580" y2="153.508996"  fill="none" stroke ="blue" stroke-width="1" />
</svg>
