<?xml version="1.0" standalone="no"?>
<!DOCTYPE svg PUBLIC "-//W3C//DTD SVG 1.1//EN"
 "http://www.w3.org/Graphics/SVG/1.1/DTD/svg11.dtd">
<svg width="94px" height="569px" version="1.1"
 xmlns="http://www.w3.org/2000/svg" xmlns:xlink="http://www.w3.org/1999/xlink">
<path d="M 35.549091,472.616867 A182.764892,182.764892 0.000000 0,1 52.249433,447.891257" fill="none" stroke ="red" stroke-width="1" />
<path d="M 52.978494,530.812386 A60.231054,60.231054 0.000000 0,1 44.741701,523.312142" fill="none" stroke ="red" stroke-width="1" />
<line x1="20.321998" y1="225.502135" x2="20.585619" y2="0.498929"  fill="none" stroke ="blue" stroke-width="1" />
<line x1="55.047002" y1="242.503563" x2="55.604360" y2="0.497937"  fill="none" stroke ="blue" stroke-width="1" />
<line x1="55.451314" y1="344.505923" x2="54.965537" y2="258.497371"  fill="none" stroke ="blue" stroke-width="1" />
<line x1="90.975328" y1="352.506850" x2="91.537172" y2="231.495530"  fill="none" stroke ="blue" stroke-width="1" />
<line x1="55.587280" y1="567.501073" x2="55.326255" y2="345.499029"  fill="none" stroke ="blue" stroke-width="1" />
<line x1="55.567521" y1="257.532016" x2="55.049583" y2="242.446796"  fill="none" stroke ="blue" stroke-width="1" />
<line x1="20.366851" y1="567.501298" x2="19.975041" y2="225.497165"  fill="none" stroke ="blue" stroke-width="1" />
<line x1="91.111092" y1="228.499524" x2="91.346063" y2="36.498588"  fill="none" stroke ="blue" stroke-width="1" />
<line x1="70.488524" y1="107.499875" x2="70.522504" y2="375.499870"  fill="none" stroke ="blue" stroke-width="1" />
<line x1="33.508849" y1="104.499910" x2="33.495795" y2="247.500091"  fill="none" stroke ="blue" stroke-width="1" />
<line x1="33.505527" y1="251.500001" x2="33.481318" y2="475.500106"  fill="none" stroke ="blue" stroke-width="1" />
<line x1="91.387791" y1="532.500915" x2="91.242113" y2="355.500212"  fill="none" stroke ="blue" stroke-width="1" />
<line x1="91.470881" y1="567.502959" x2="91.574515" y2="533.497180"  fill="none" stroke ="blue" stroke-width="1" />
<line x1="0.700657" y1="171.499985" x2="0.698906" y2="263.500004"  fill="none" stroke ="blue" stroke-width="1" />
<line x1="1.619654" y1="0.486691" x2="0.479974" y2="161.499858"  fill="none" stroke ="blue" stroke-width="1" />
<line x1="0.569646" y1="161.498504" x2="0.763303" y2="170.515821"  fill="none" stroke ="blue" stroke-width="1" />
<line x1="33.330399" y1="0.497660" x2="33.507923" y2="63.499978"  fill="none" stroke ="blue" stroke-width="1" />
<line x1="0.864424" y1="264.499199" x2="0.811471" y2="306.500393"  fill="none" stroke ="blue" stroke-width="1" />
<line x1="0.272124" y1="307.501422" x2="1.894325" y2="567.516256"  fill="none" stroke ="blue" stroke-width="1" />
<line x1="48.010935" y1="124.300499" x2="51.928181" y2="134.332811"  fill="none" stroke ="blue" stroke-width="1" />
<line x1="33.484905" y1="71.497562" x2="33.566579" y2="104.497360"  fill="none" stroke ="blue" stroke-width="1" />
<line x1="71.041363" y1="0.495583" x2="70.889933" y2="50.501181"  fill="none" stroke ="blue" stroke-width="1" />
<line x1="90.603489" y1="229.754112" x2="79.350040" y2="230.682748"  fill="none" stroke ="blue" stroke-width="1" />
<line x1="70.396976" y1="383.497902" x2="70.677616" y2="503.506600"  fill="none" stroke ="blue" stroke-width="1" />
<line x1="89.056233" y1="38.324692" x2="73.646938" y2="48.717855"  fill="none" stroke ="blue" stroke-width="1" />
<line x1="71.309816" y1="52.512678" x2="70.448737" y2="107.514853"  fill="none" stroke ="blue" stroke-width="1" />
<line x1="48.429745" y1="129.689214" x2="43.709226" y2="127.936500"  fill="none" stroke ="blue" stroke-width="1" />
<line x1="43.648886" y1="128.015933" x2="40.484843" y2="120.506386"  fill="none" stroke ="blue" stroke-width="1" />
<line x1="40.656033" y1="120.134114" x2="37.597096" y2="110.469269"  fill="none" stroke ="blue" stroke-width="1" />
<line x1="52.064131" y1="141.283532" x2="47.871575" y2="130.357420"  fill="none" stroke ="blue" stroke-width="1" />
<line x1="73.194358" y1="46.088931" x2="90.366717" y2="33.320743"  fill="none" stroke ="blue" stroke-width="1" />
<line x1="90.347599" y1="34.507166" x2="90.234366" y2="0.494226"  fill="none" stroke ="blue" stroke-width="1" />
<line x1="73.853283" y1="373.997962" x2="90.041742" y2="353.144260"  fill="none" stroke ="blue" stroke-width="1" />
<line x1="33.704812" y1="64.506823" x2="33.470763" y2="71.532340"  fill="none" stroke ="blue" stroke-width="1" />
<line x1="53.891193" y1="536.968208" x2="40.347629" y2="524.667770"  fill="none" stroke ="blue" stroke-width="1" />
<line x1="33.518478" y1="499.496603" x2="33.283140" y2="567.502710"  fill="none" stroke ="blue" stroke-width="1" />
<line x1="51.912320" y1="453.773313" x2="38.273018" y2="474.349541"  fill="none" stroke ="blue" stroke-width="1" />
<line x1="38.691369" y1="473.978904" x2="34.260442" y2="485.001725"  fill="none" stroke ="blue" stroke-width="1" />
<line x1="34.844392" y1="484.866463" x2="33.318527" y2="494.627948"  fill="none" stroke ="blue" stroke-width="1" />
<line x1="16.701112" y1="472.438397" x2="8.429635" y2="470.871434"  fill="none" stroke ="blue" stroke-width="1" />
<line x1="70.364238" y1="503.287622" x2="77.133900" y2="530.835705"  fill="none" stroke ="blue" stroke-width="1" />
<line x1="51.364800" y1="246.822915" x2="32.517250" y2="250.586388"  fill="none" stroke ="blue" stroke-width="1" />
<line x1="88.917057" y1="362.815201" x2="75.415199" y2="380.680135"  fill="none" stroke ="blue" stroke-width="1" />
<line x1="40.086941" y1="110.294864" x2="44.991596" y2="124.328187"  fill="none" stroke ="blue" stroke-width="1" />
<line x1="74.401366" y1="224.257239" x2="87.651784" y2="218.873576"  fill="none" stroke ="blue" stroke-width="1" />
<line x1="70.182773" y1="514.475477" x2="70.581206" y2="525.568916"  fill="none" stroke ="blue" stroke-width="1" />
<line x1="86.440870" y1="252.149843" x2="73.367130" y2="250.960256"  fill="none" stroke ="blue" stroke-width="1" />
<line x1="77.465358" y1="319.556437" x2="87.849570" y2="325.930504"  fill="none" stroke ="blue" stroke-width="1" />
<line x1="71.373101" y1="526.427768" x2="72.960733" y2="567.597921"  fill="none" stroke ="blue" stroke-width="1" />
<line x1="5.356466" y1="268.138014" x2="16.575172" y2="263.689579"  fill="none" stroke ="blue" stroke-width="1" />
<line x1="36.152056" y1="518.014804" x2="44.427165" y2="523.607764"  fill="none" stroke ="blue" stroke-width="1" />
<line x1="34.851871" y1="496.092706" x2="43.468324" y2="503.536665"  fill="none" stroke ="blue" stroke-width="1" />
<line x1="80.129163" y1="154.095837" x2="82.953928" y2="158.493168"  fill="none" stroke ="blue" stroke-width="1" />
<line x1="87.828538" y1="328.512514" x2="83.328540" y2="327.015358"  fill="none" stroke ="blue" stroke-width="1" />
<line x1="82.914583" y1="326.940096" x2="76.002185" y2="321.821787"  fill="none" stroke ="blue" stroke-width="1" />
<line x1="90.219174" y1="536.192354" x2="81.374734" y2="545.379405"  fill="none" stroke ="blue" stroke-width="1" />
<line x1="72.519119" y1="204.585828" x2="83.847997" y2="202.062202"  fill="none" stroke ="blue" stroke-width="1" />
<line x1="73.185512" y1="155.288910" x2="79.079752" y2="150.167199"  fill="none" stroke ="blue" stroke-width="1" />
<line x1="39.146735" y1="527.483820" x2="37.540741" y2="562.547668"  fill="none" stroke ="blue" stroke-width="1" />
<line x1="73.401551" y1="244.639758" x2="79.963244" y2="249.261978"  fill="none" stroke ="blue" stroke-width="1" />
<line x1="39.451109" y1="72.319505" x2="51.640266" y2="69.017838"  fill="none" stroke ="blue" stroke-width="1" />
<line x1="49.986169" y1="71.433165" x2="49.275317" y2="87.534230"  fill="none" stroke ="blue" stroke-width="1" />
<line x1="83.208615" y1="94.438626" x2="83.640963" y2="113.519465"  fill="none" stroke ="blue" stroke-width="1" />
<line x1="77.907470" y1="530.561133" x2="78.171370" y2="537.435841"  fill="none" stroke ="blue" stroke-width="1" />
<line x1="39.013279" y1="19.498755" x2="39.066653" y2="41.501051"  fill="none" stroke ="blue" stroke-width="1" />
<line x1="37.387413" y1="309.341183" x2="43.267827" y2="305.172493"  fill="none" stroke ="blue" stroke-width="1" />
<line x1="43.485541" y1="304.838578" x2="50.515426" y2="305.138799"  fill="none" stroke ="blue" stroke-width="1" />
<line x1="8.848529" y1="176.373184" x2="9.620556" y2="184.582703"  fill="none" stroke ="blue" stroke-width="1" />
<line x1="44.679496" y1="191.537115" x2="42.375277" y2="202.680981"  fill="none" stroke ="blue" stroke-width="1" />
<line x1="11.583932" y1="91.415340" x2="11.348501" y2="99.524634"  fill="none" stroke ="blue" stroke-width="1" />
<line x1="12.021420" y1="496.412656" x2="9.805241" y2="508.555708"  fill="none" stroke ="blue" stroke-width="1" />
<line x1="42.253585" y1="382.598178" x2="44.222985" y2="407.600588"  fill="none" stroke ="blue" stroke-width="1" />
<line x1="48.359468" y1="52.483790" x2="46.967212" y2="64.553892"  fill="none" stroke ="blue" stroke-width="1" />
<line x1="11.523665" y1="240.265126" x2="13.685438" y2="249.686897"  fill="none" stroke ="blue" stroke-width="1" />
<line x1="37.893369" y1="270.486100" x2="38.212232" y2="279.510168"  fill="none" stroke ="blue" stroke-width="1" />
<line x1="82.657358" y1="424.399128" x2="83.191436" y2="430.526894"  fill="none" stroke ="blue" stroke-width="1" />
<line x1="83.449197" y1="430.314622" x2="83.046649" y2="432.596437"  fill="none" stroke ="blue" stroke-width="1" />
<line x1="84.971690" y1="65.416617" x2="84.439154" y2="81.563953"  fill="none" stroke ="blue" stroke-width="1" />
<line x1="11.269699" y1="120.253939" x2="8.908553" y2="141.655401"  fill="none" stroke ="blue" stroke-width="1" />
<line x1="43.985807" y1="209.428629" x2="43.130930" y2="215.587575"  fill="none" stroke ="blue" stroke-width="1" />
<line x1="39.037440" y1="0.497407" x2="38.947729" y2="16.502510"  fill="none" stroke ="blue" stroke-width="1" />
<line x1="9.343321" y1="185.668886" x2="7.918419" y2="192.784056"  fill="none" stroke ="blue" stroke-width="1" />
<line x1="44.108807" y1="262.508759" x2="43.792371" y2="284.504206"  fill="none" stroke ="blue" stroke-width="1" />
<line x1="43.566785" y1="294.526783" x2="43.824047" y2="303.490700"  fill="none" stroke ="blue" stroke-width="1" />
<line x1="39.080240" y1="42.499489" x2="39.055915" y2="62.499460"  fill="none" stroke ="blue" stroke-width="1" />
<line x1="81.614660" y1="193.065921" x2="80.474207" y2="200.646563"  fill="none" stroke ="blue" stroke-width="1" />
<line x1="81.908198" y1="159.496895" x2="72.301946" y2="165.164299"  fill="none" stroke ="blue" stroke-width="1" />
<line x1="10.935699" y1="103.110028" x2="11.900717" y2="106.662781"  fill="none" stroke ="blue" stroke-width="1" />
<line x1="11.380070" y1="106.482631" x2="11.347166" y2="110.498748"  fill="none" stroke ="blue" stroke-width="1" />
<line x1="45.523316" y1="330.498235" x2="46.588287" y2="344.569005"  fill="none" stroke ="blue" stroke-width="1" />
<line x1="45.342482" y1="428.825379" x2="40.920073" y2="440.276024"  fill="none" stroke ="blue" stroke-width="1" />
<line x1="37.551999" y1="562.500933" x2="37.461988" y2="567.517262"  fill="none" stroke ="blue" stroke-width="1" />
<line x1="83.021063" y1="122.454316" x2="82.246824" y2="130.571236"  fill="none" stroke ="blue" stroke-width="1" />
<line x1="44.258173" y1="132.388641" x2="43.304398" y2="151.589630"  fill="none" stroke ="blue" stroke-width="1" />
<line x1="83.531711" y1="210.499534" x2="83.530289" y2="216.500007"  fill="none" stroke ="blue" stroke-width="1" />
<line x1="43.941039" y1="203.429832" x2="44.278714" y2="210.364698"  fill="none" stroke ="blue" stroke-width="1" />
<line x1="49.952969" y1="419.442946" x2="50.348115" y2="429.505964"  fill="none" stroke ="blue" stroke-width="1" />
<line x1="87.862725" y1="425.524436" x2="87.187562" y2="435.546320"  fill="none" stroke ="blue" stroke-width="1" />
<line x1="8.263676" y1="162.576552" x2="6.973504" y2="175.447223"  fill="none" stroke ="blue" stroke-width="1" />
<line x1="49.972588" y1="97.376850" x2="49.386013" y2="104.652063"  fill="none" stroke ="blue" stroke-width="1" />
<line x1="81.542457" y1="130.884575" x2="82.593773" y2="137.790205"  fill="none" stroke ="blue" stroke-width="1" />
<line x1="43.048592" y1="167.449603" x2="43.976294" y2="177.548110"  fill="none" stroke ="blue" stroke-width="1" />
<line x1="9.029895" y1="196.393853" x2="7.931713" y2="211.603375"  fill="none" stroke ="blue" stroke-width="1" />
<line x1="11.045777" y1="309.482891" x2="10.624956" y2="320.655370"  fill="none" stroke ="blue" stroke-width="1" />
<line x1="11.249122" y1="193.437322" x2="10.543657" y2="196.261075"  fill="none" stroke ="blue" stroke-width="1" />
<line x1="10.857824" y1="406.417227" x2="9.921284" y2="413.683195"  fill="none" stroke ="blue" stroke-width="1" />
<line x1="48.761708" y1="408.316917" x2="47.780309" y2="417.634847"  fill="none" stroke ="blue" stroke-width="1" />
<line x1="41.551970" y1="180.476881" x2="45.224668" y2="188.732768"  fill="none" stroke ="blue" stroke-width="1" />
<line x1="17.061099" y1="266.742809" x2="1.975648" y2="273.553538"  fill="none" stroke ="blue" stroke-width="1" />
<line x1="83.012371" y1="389.480697" x2="82.612434" y2="399.583623"  fill="none" stroke ="blue" stroke-width="1" />
<line x1="81.702703" y1="436.519337" x2="80.464706" y2="449.496633"  fill="none" stroke ="blue" stroke-width="1" />
<line x1="43.784206" y1="356.351405" x2="51.035342" y2="370.220101"  fill="none" stroke ="blue" stroke-width="1" />
<line x1="15.436056" y1="180.497785" x2="15.054202" y2="191.519201"  fill="none" stroke ="blue" stroke-width="1" />
<line x1="47.776717" y1="107.185843" x2="49.242909" y2="117.811449"  fill="none" stroke ="blue" stroke-width="1" />
<line x1="47.019765" y1="0.363121" x2="46.002727" y2="11.361545"  fill="none" stroke ="blue" stroke-width="1" />
<line x1="39.100819" y1="61.476775" x2="38.633567" y2="69.507771"  fill="none" stroke ="blue" stroke-width="1" />
<line x1="10.872917" y1="232.326178" x2="8.785616" y2="239.856361"  fill="none" stroke ="blue" stroke-width="1" />
<line x1="82.601616" y1="471.441252" x2="81.746604" y2="484.516126"  fill="none" stroke ="blue" stroke-width="1" />
<line x1="13.721642" y1="47.231521" x2="12.169642" y2="51.730980"  fill="none" stroke ="blue" stroke-width="1" />
<line x1="15.363251" y1="120.400347" x2="16.427993" y2="129.623752"  fill="none" stroke ="blue" stroke-width="1" />
<line x1="47.598785" y1="471.405984" x2="46.844097" y2="478.640219"  fill="none" stroke ="blue" stroke-width="1" />
<line x1="49.760682" y1="196.455751" x2="48.315097" y2="220.608636"  fill="none" stroke ="blue" stroke-width="1" />
<line x1="10.419713" y1="451.262370" x2="8.602718" y2="459.522595"  fill="none" stroke ="blue" stroke-width="1" />
<line x1="88.478159" y1="526.724649" x2="77.484849" y2="525.655832"  fill="none" stroke ="blue" stroke-width="1" />
</svg>
