<?xml version="1.0" standalone="no"?>
<!DOCTYPE svg PUBLIC "-//W3C//DTD SVG 1.1//EN"
 "http://www.w3.org/Graphics/SVG/1.1/DTD/svg11.dtd">
<svg width="214px" height="170px" version="1.1"
 xmlns="http://www.w3.org/2000/svg" xmlns:xlink="http://www.w3.org/1999/xlink">
<line x1="9.499998" y1="7.492652" x2="100.500275" y2="7.466752"  fill="none" stroke ="blue" stroke-width="1" />
<line x1="115.498517" y1="7.493308" x2="170.499887" y2="7.575422"  fill="none" stroke ="blue" stroke-width="1" />
<line x1="196.500000" y1="7.470987" x2="206.500000" y2="7.470987"  fill="none" stroke ="blue" stroke-width="1" />
<line x1="8.498022" y1="162.500000" x2="8.498022" y2="8.500000"  fill="none" stroke ="blue" stroke-width="1" />
<line x1="101.501978" y1="8.500000" x2="101.501978" y2="162.500000"  fill="none" stroke ="blue" stroke-width="1" />
<line x1="114.498022" y1="162.500000" x2="114.498022" y2="8.500000"  fill="none" stroke ="blue" stroke-width="1" />
<line x1="195.512105" y1="109.500209" x2="195.490787" y2="8.499791"  fill="none" stroke ="blue" stroke-width="1" />
<line x1="207.501978" y1="8.500000" x2="207.501978" y2="162.500000"  fill="none" stroke ="blue" stroke-width="1" />
<line x1="100.500142" y1="163.514677" x2="9.500000" y2="163.501519"  fill="none" stroke ="blue" stroke-width="1" />
<line x1="182.498017" y1="163.170616" x2="115.494425" y2="163.573990"  fill="none" stroke ="blue" stroke-width="1" />
<line x1="206.499949" y1="163.494624" x2="193.491694" y2="163.616985"  fill="none" stroke ="blue" stroke-width="1" />
<line x1="88.633528" y1="161.515908" x2="89.767046" y2="9.494535"  fill="none" stroke ="blue" stroke-width="1" />
<line x1="174.548325" y1="84.499766" x2="174.582232" y2="91.504442"  fill="none" stroke ="blue" stroke-width="1" />
<line x1="129.555086" y1="103.486344" x2="129.415889" y2="133.504247"  fill="none" stroke ="blue" stroke-width="1" />
<line x1="23.484852" y1="9.499885" x2="23.502439" y2="160.500116"  fill="none" stroke ="blue" stroke-width="1" />
<line x1="129.484964" y1="9.491427" x2="129.375034" y2="22.507390"  fill="none" stroke ="blue" stroke-width="1" />
<line x1="129.380079" y1="133.497352" x2="129.461327" y2="160.503125"  fill="none" stroke ="blue" stroke-width="1" />
<line x1="129.539762" y1="60.500172" x2="129.374949" y2="98.503794"  fill="none" stroke ="blue" stroke-width="1" />
<line x1="138.426263" y1="37.493596" x2="138.509270" y2="49.499936"  fill="none" stroke ="blue" stroke-width="1" />
<line x1="177.551776" y1="99.500067" x2="177.527258" y2="118.500035"  fill="none" stroke ="blue" stroke-width="1" />
<line x1="171.446796" y1="127.500833" x2="171.572478" y2="135.530171"  fill="none" stroke ="blue" stroke-width="1" />
<line x1="160.497216" y1="95.389571" x2="147.480280" y2="95.717696"  fill="none" stroke ="blue" stroke-width="1" />
<line x1="144.562946" y1="27.497856" x2="144.542353" y2="36.500097"  fill="none" stroke ="blue" stroke-width="1" />
<line x1="144.376379" y1="66.485656" x2="144.507551" y2="74.499876"  fill="none" stroke ="blue" stroke-width="1" />
<line x1="159.524729" y1="108.500081" x2="159.492089" y2="118.499974"  fill="none" stroke ="blue" stroke-width="1" />
<line x1="58.501076" y1="80.395876" x2="70.499795" y2="80.519863"  fill="none" stroke ="blue" stroke-width="1" />
<line x1="148.501510" y1="26.602151" x2="158.499325" y2="26.454336"  fill="none" stroke ="blue" stroke-width="1" />
<line x1="183.520868" y1="27.499671" x2="183.662552" y2="36.497440"  fill="none" stroke ="blue" stroke-width="1" />
<line x1="155.552906" y1="98.304253" x2="143.473612" y2="99.098863"  fill="none" stroke ="blue" stroke-width="1" />
<line x1="139.500000" y1="116.498627" x2="149.499999" y2="116.501708"  fill="none" stroke ="blue" stroke-width="1" />
<line x1="130.500006" y1="134.498962" x2="140.499718" y2="134.552568"  fill="none" stroke ="blue" stroke-width="1" />
<line x1="152.499137" y1="125.411940" x2="142.500097" y2="125.509887"  fill="none" stroke ="blue" stroke-width="1" />
<line x1="177.490148" y1="36.500071" x2="177.562649" y2="46.499546"  fill="none" stroke ="blue" stroke-width="1" />
<line x1="180.627442" y1="54.480687" x2="180.449968" y2="62.498893"  fill="none" stroke ="blue" stroke-width="1" />
<line x1="147.212193" y1="72.512400" x2="147.642256" y2="82.493871"  fill="none" stroke ="blue" stroke-width="1" />
<line x1="159.524257" y1="133.500168" x2="159.579541" y2="125.500550"  fill="none" stroke ="blue" stroke-width="1" />
<line x1="157.501081" y1="140.576597" x2="167.513199" y2="140.435301"  fill="none" stroke ="blue" stroke-width="1" />
<line x1="165.687881" y1="105.509168" x2="165.006356" y2="119.475912"  fill="none" stroke ="blue" stroke-width="1" />
<line x1="59.500000" y1="30.500000" x2="59.500000" y2="49.500000"  fill="none" stroke ="blue" stroke-width="1" />
<line x1="165.998884" y1="37.475537" x2="165.851455" y2="46.522024"  fill="none" stroke ="blue" stroke-width="1" />
<line x1="162.544651" y1="10.500451" x2="162.423340" y2="22.509327"  fill="none" stroke ="blue" stroke-width="1" />
<line x1="149.501549" y1="38.621615" x2="161.499602" y2="38.468776"  fill="none" stroke ="blue" stroke-width="1" />
<line x1="133.500491" y1="137.542386" x2="143.510731" y2="137.426431"  fill="none" stroke ="blue" stroke-width="1" />
<line x1="71.500000" y1="104.500000" x2="71.500000" y2="118.500000"  fill="none" stroke ="blue" stroke-width="1" />
<line x1="163.502088" y1="80.380804" x2="173.481506" y2="80.555637"  fill="none" stroke ="blue" stroke-width="1" />
<line x1="38.500000" y1="57.500000" x2="38.500000" y2="76.500000"  fill="none" stroke ="blue" stroke-width="1" />
<line x1="77.500000" y1="20.500000" x2="77.500000" y2="34.500000"  fill="none" stroke ="blue" stroke-width="1" />
<line x1="155.499949" y1="128.515487" x2="136.500154" y2="128.453164"  fill="none" stroke ="blue" stroke-width="1" />
<line x1="171.500000" y1="8.500000" x2="171.500000" y2="21.500000"  fill="none" stroke ="blue" stroke-width="1" />
<line x1="168.500000" y1="10.500000" x2="168.500000" y2="22.500000"  fill="none" stroke ="blue" stroke-width="1" />
<line x1="77.500000" y1="56.500000" x2="77.500000" y2="71.500000"  fill="none" stroke ="blue" stroke-width="1" />
<line x1="59.500000" y1="111.500000" x2="59.500000" y2="130.500000"  fill="none" stroke ="blue" stroke-width="1" />
<line x1="162.449240" y1="30.499886" x2="162.420129" y2="43.499821"  fill="none" stroke ="blue" stroke-width="1" />
<line x1="47.500000" y1="53.500000" x2="47.500000" y2="67.500000"  fill="none" stroke ="blue" stroke-width="1" />
<line x1="62.500000" y1="59.500000" x2="62.500000" y2="74.500000"  fill="none" stroke ="blue" stroke-width="1" />
<line x1="153.540760" y1="54.498576" x2="153.557179" y2="66.499922"  fill="none" stroke ="blue" stroke-width="1" />
<line x1="165.539403" y1="12.500087" x2="165.517232" y2="22.500038"  fill="none" stroke ="blue" stroke-width="1" />
</svg>
